<?xml version="1.0" encoding="utf-8"?>
<!-- Generator: Adobe Illustrator 27.5.0, SVG Export Plug-In . SVG Version: 6.00 Build 0)  -->
<!DOCTYPE svg PUBLIC "-//W3C//DTD SVG 1.1//EN" "http://www.w3.org/Graphics/SVG/1.1/DTD/svg11.dtd" [
	<!ENTITY ns_extend "http://ns.adobe.com/Extensibility/1.0/">
	<!ENTITY ns_ai "http://ns.adobe.com/AdobeIllustrator/10.0/">
	<!ENTITY ns_graphs "http://ns.adobe.com/Graphs/1.0/">
	<!ENTITY ns_vars "http://ns.adobe.com/Variables/1.0/">
	<!ENTITY ns_imrep "http://ns.adobe.com/ImageReplacement/1.0/">
	<!ENTITY ns_sfw "http://ns.adobe.com/SaveForWeb/1.0/">
	<!ENTITY ns_custom "http://ns.adobe.com/GenericCustomNamespace/1.0/">
	<!ENTITY ns_adobe_xpath "http://ns.adobe.com/XPath/1.0/">
]>
<svg version="1.1" id="Layer_1" xmlns:x="&ns_extend;" xmlns:i="&ns_ai;" xmlns:graph="&ns_graphs;"
	 xmlns="http://www.w3.org/2000/svg" xmlns:xlink="http://www.w3.org/1999/xlink" x="0px" y="0px" viewBox="0 0 117 119"
	 style="enable-background:new 0 0 117 119;" xml:space="preserve">
<style type="text/css">
	.st0{fill:#F1B847;}
</style>
<metadata>
	<sfw  xmlns="&ns_sfw;">
		<slices></slices>
		<sliceSourceBounds  bottomLeftOrigin="true" height="106.8" width="109.3" x="4" y="5.4"></sliceSourceBounds>
	</sfw>
</metadata>
<g>
	<path class="st0" d="M19.6,25C24.1,15,34.3,8.1,45.3,7.3c-2.4,1.5-4.9,2.8-7,4.8c7.3-3.5,15.7-5.1,23.4-2c-1.7,0.6-3.3,1.3-5,1.8
		c-0.5,0.5-1.4,1.4-1.8,1.9c3.2-0.8,6.4-1.8,9.7-2.1c8.5,0,14.8,7.7,23.4,7c1.2-1.2,2.3-2.4,3.5-3.6c0-1.1,0-2.2,0-3.3
		c-0.8-0.7-1.6-1.4-2.4-2.2c-1.5-0.1-2.9-0.2-4.4-0.4c6.2-5,13.9,2.5,12.8,9.3c1,6.6-4.9,11.3-10.7,13c4.5,0.1,9-0.3,13.5,0.2
		c5.4,1.2,8.9,6.1,10.8,11c-2.2-0.6-4.5-1.2-6.8-1.4c4.8,1.6,9.8,4.5,9.5,10.3c-1.6-1.1-3.3-2.1-5-3.1c3,4,5.4,8.8,3.9,13.8
		c-2.1-1.5-4.1-3-6.2-4.4c1.6,4.1,1.4,8.6,0,12.7c-0.4-0.3-1.3-1.1-1.7-1.4c-0.2,2.8-0.7,5.6-1.7,8.2c-2-14.5-7.7-28.9-17.8-39.7
		C69.4,19.7,40.8,11.7,19.6,25z"/>
</g>
<g>
	<path d="M19.8,26.2c21.4-14,50.9-5.2,66.4,13.5c8.6,10.2,12.7,23.2,15,36.1c1.3,9.5-1.9,19.7-9,26.4c-6.8,6.7-16.1,9.8-25.1,11.9
		c0-10.9-10.6-18.6-9.4-29.4c1.9-5,4.7-9.8,4.5-15.4c-0.2,4.9,0.1,10.8,5.1,13.4c7.1,3.5,5.9,13.6,13.4,16.7
		c-0.6-1.6-1.1-3.1-1.7-4.7c1.8,1.7,3.5,3.4,5.3,5.1c2.2-1.8,4.6-3.3,6.3-5.6c-0.6-6.4-4.8-12.2-4-18.9c1.3-5.1-3.1-9.5-2.8-14.6
		c1.4-2.9,3.7-5.2,5.6-7.8c-3.8,0-7.4,1.2-9.6,4.3c-10.1-6.7-22.6-5-33.3-1.4c-0.6-4.2-0.4-8.4-1.3-12.5c0.5,6.8-0.4,14.9-6.9,18.6
		c-6,2.9-9,9.2-10.8,15.3c-0.9,4.3-5.5,5.9-8.7,8.3c0.7-2.1,1.4-4.1,2.1-6.2c-2.4,2.1-4.2,5.1-7.2,6.6c-4.1-2.3-11-6.2-8.3-11.9
		c2.4-5.7,3.9-11.8,5.2-17.8c1.1-3.8-2.3-7.6-0.3-11.2c2.1-4.3,3.2-9,4.8-13.5c-2.7-3.9-5.7-7.6-8.8-11.3
		C11.4,19.8,17.1,21.1,19.8,26.2z"/>
</g>
</svg>
