<?xml version="1.0" encoding="utf-8"?>
<!-- Generator: Adobe Illustrator 27.5.0, SVG Export Plug-In . SVG Version: 6.00 Build 0)  -->
<!DOCTYPE svg PUBLIC "-//W3C//DTD SVG 1.1//EN" "http://www.w3.org/Graphics/SVG/1.1/DTD/svg11.dtd" [
	<!ENTITY ns_extend "http://ns.adobe.com/Extensibility/1.0/">
	<!ENTITY ns_ai "http://ns.adobe.com/AdobeIllustrator/10.0/">
	<!ENTITY ns_graphs "http://ns.adobe.com/Graphs/1.0/">
	<!ENTITY ns_vars "http://ns.adobe.com/Variables/1.0/">
	<!ENTITY ns_imrep "http://ns.adobe.com/ImageReplacement/1.0/">
	<!ENTITY ns_sfw "http://ns.adobe.com/SaveForWeb/1.0/">
	<!ENTITY ns_custom "http://ns.adobe.com/GenericCustomNamespace/1.0/">
	<!ENTITY ns_adobe_xpath "http://ns.adobe.com/XPath/1.0/">
]>
<svg version="1.1" id="Layer_1" xmlns:x="&ns_extend;" xmlns:i="&ns_ai;" xmlns:graph="&ns_graphs;"
	 xmlns="http://www.w3.org/2000/svg" xmlns:xlink="http://www.w3.org/1999/xlink" x="0px" y="0px" viewBox="0 0 485.4 119"
	 style="enable-background:new 0 0 485.4 119;" xml:space="preserve">
<style type="text/css">
	.st0{fill:#F1B847;}
</style>
<metadata>
	<sfw  xmlns="&ns_sfw;">
		<slices></slices>
		<sliceSourceBounds  bottomLeftOrigin="true" height="106.8" width="476.3" x="4" y="5.4"></sliceSourceBounds>
	</sfw>
</metadata>
<g>
	<path class="st0" d="M19.6,25C24.1,15,34.3,8.1,45.3,7.3c-2.4,1.5-4.9,2.8-7,4.8c7.3-3.5,15.7-5.1,23.4-2c-1.7,0.6-3.3,1.3-5,1.8
		c-0.5,0.5-1.4,1.4-1.8,1.9c3.2-0.8,6.4-1.8,9.7-2.1c8.5,0,14.8,7.7,23.4,7c1.2-1.2,2.3-2.4,3.5-3.6c0-1.1,0-2.2,0-3.3
		c-0.8-0.7-1.6-1.4-2.4-2.2c-1.5-0.1-2.9-0.2-4.4-0.4c6.2-5,13.9,2.5,12.8,9.3c1,6.6-4.9,11.3-10.7,13c4.5,0.1,9-0.3,13.5,0.2
		c5.4,1.2,8.9,6.1,10.8,11c-2.2-0.6-4.5-1.2-6.8-1.4c4.8,1.6,9.8,4.5,9.5,10.3c-1.6-1.1-3.3-2.1-5-3.1c3,4,5.4,8.8,3.9,13.8
		c-2.1-1.5-4.1-3-6.2-4.4c1.6,4.1,1.4,8.6,0,12.7c-0.4-0.3-1.3-1.1-1.7-1.4c-0.2,2.8-0.7,5.6-1.7,8.2c-2-14.5-7.7-28.9-17.8-39.7
		C69.4,19.7,40.8,11.7,19.6,25z"/>
</g>
<g>
	<path d="M19.8,26.2c21.4-14,50.9-5.2,66.4,13.5c8.6,10.2,12.7,23.2,15,36.1c1.3,9.5-1.9,19.7-9,26.4c-6.8,6.7-16.1,9.8-25.1,11.9
		c0-10.9-10.6-18.6-9.4-29.4c1.9-5,4.7-9.8,4.5-15.4c-0.2,4.9,0.1,10.8,5.1,13.4c7.1,3.5,5.9,13.6,13.4,16.7
		c-0.6-1.6-1.1-3.1-1.7-4.7c1.8,1.7,3.5,3.4,5.3,5.1c2.2-1.8,4.6-3.3,6.3-5.6c-0.6-6.4-4.8-12.2-4-18.9c1.3-5.1-3.1-9.5-2.8-14.6
		c1.4-2.9,3.7-5.2,5.6-7.8c-3.8,0-7.4,1.2-9.6,4.3c-10.1-6.7-22.6-5-33.3-1.4c-0.6-4.2-0.4-8.4-1.3-12.5c0.5,6.8-0.4,14.9-6.9,18.6
		c-6,2.9-9,9.2-10.8,15.3c-0.9,4.3-5.5,5.9-8.7,8.3c0.7-2.1,1.4-4.1,2.1-6.2c-2.4,2.1-4.2,5.1-7.2,6.6c-4.1-2.3-11-6.2-8.3-11.9
		c2.4-5.7,3.9-11.8,5.2-17.8c1.1-3.8-2.3-7.6-0.3-11.2c2.1-4.3,3.2-9,4.8-13.5c-2.7-3.9-5.7-7.6-8.8-11.3
		C11.4,19.8,17.1,21.1,19.8,26.2z"/>
</g>
<g>
	<path d="M159.2,50.1c-0.1-2.4-0.7-4.6-1.7-6.7c-1-2.1-2.4-3.8-4.3-5.2c-1.9-1.3-4.3-2-7.2-2c-3.1,0-5.4,0.9-7,2.6
		c-1.6,1.7-2.4,3.8-2.4,6.1c0,2.1,0.6,3.8,1.8,5.2c1.2,1.4,2.7,2.6,4.6,3.7c1.9,1.1,3.9,2.1,6,3.1c1.9,0.8,3.7,1.7,5.6,2.7
		c1.9,1,3.6,2.1,5.1,3.3c1.5,1.2,2.7,2.7,3.7,4.4c0.9,1.7,1.4,3.7,1.4,6.1c0,2.7-0.7,5.1-2,7.3c-1.4,2.1-3.3,3.8-5.9,5
		c-2.6,1.2-5.7,1.8-9.4,1.8c-2.2,0-4.5-0.3-6.9-1c-2.4-0.6-4.5-1.6-6.3-2.8l0.4,3.2h-3.8l-0.4-15.8h2.9c0.2,4.3,1.8,7.6,4.5,9.9
		c2.8,2.2,6.1,3.4,10,3.4c1.9,0,3.7-0.4,5.3-1.1c1.6-0.7,2.9-1.8,3.9-3.1c1-1.4,1.4-3.1,1.4-5c0-2.2-0.6-4.1-1.8-5.6
		s-2.7-2.8-4.6-3.8c-1.9-1.1-3.9-2.1-6-3.1c-1.9-0.8-3.7-1.7-5.5-2.7c-1.8-0.9-3.5-2-5-3.2c-1.5-1.2-2.7-2.7-3.6-4.3
		c-0.9-1.7-1.4-3.7-1.4-6.1c0-1.3,0.2-2.7,0.7-4.1s1.2-2.9,2.3-4.3c1.1-1.4,2.6-2.5,4.6-3.3c1.9-0.9,4.4-1.3,7.4-1.3
		c1.9,0,4,0.3,6.3,0.8c2.3,0.5,4.5,1.5,6.5,3l-0.3-3.2h3.8v16.3H159.2z"/>
	<path d="M210.8,50c0-2.9-0.3-5.3-0.9-7.3c-0.5-1.9-1.5-3.4-2.8-4.3c-1.4-1-3.3-1.4-5.9-1.4h-6.3l-0.1,40.3c0,1.3,0,2.5,0,3.4
		c0,1-0.1,1.8-0.2,2.4c1,0,2.1-0.1,3.1-0.1c1,0,2-0.1,3.1-0.1v3.3h-17.4v-2.4c1.9-0.1,3.1-0.5,3.8-1.3c0.7-0.8,1-1.9,1.1-3.2
		c0.1-1.4,0.1-2.9,0.1-4.6l0.1-37.5l-7.6,0.1c-3.1,0-5.3,1-6.6,3.1c-1.3,2.1-1.9,5.3-1.9,9.7h-2.7l0.4-15.6h43.1l0.4,15.6H210.8z"/>
	<path d="M213.1,86.2v-2.4c1.5,0,2.6-0.4,3.4-1.2c0.8-0.8,1.4-1.9,2-3.3c0.5-1.4,1.1-3,1.8-4.8L235.5,33h1.8l16.5,42.1
		c0.4,1,0.8,2.4,1.3,4c0.5,1.6,0.7,3,0.6,4.1c0.8,0,1.7-0.1,2.5-0.1c0.8,0,1.7-0.1,2.5-0.1v3.3h-16.9v-2.4c1.9,0,3.1-0.5,3.7-1.3
		c0.6-0.8,0.8-1.7,0.7-2.8c-0.1-1.1-0.4-2.1-0.7-3l-2.6-7l-19.2,0.4l-2.6,7.9c-0.3,1.2-0.7,2.1-0.9,2.8c-0.3,0.7-0.6,1.5-0.9,2.3
		c1,0,2-0.1,2.9-0.1c1,0,1.9-0.1,2.8-0.1v3.3H213.1z M226.7,67.1h17.1l-5.3-14.1c-0.5-1.5-1.1-3-1.7-4.6c-0.6-1.5-1.1-3-1.7-4.6
		h-0.1c-0.5,1.4-1,2.8-1.5,4.1c-0.5,1.4-1,2.8-1.6,4.2L226.7,67.1z"/>
	<path d="M263.9,86.2v-2.4c1.9-0.1,3.2-0.5,3.8-1.3c0.7-0.8,1.1-1.8,1.1-3.2c0.1-1.4,0.1-2.9,0.1-4.6v-32c0-1,0-1.9,0.1-2.8
		c0-0.9,0.1-1.7,0.1-2.5c-0.9,0-1.8,0.1-2.7,0.1c-0.9,0-1.8,0.1-2.7,0.1v-3.3h16.7v2.4c-1.8,0-3.1,0.5-3.8,1.3
		c-0.7,0.8-1.1,1.9-1.2,3.2c-0.1,1.3-0.1,2.9-0.1,4.7v31.7c0,1.3,0,2.5,0,3.4c0,0.9-0.1,1.7-0.2,2.4l13.8-0.2c3.1,0,5.5-1,7.1-3
		c1.6-1.9,2.4-5.1,2.4-9.4h2.5l-0.4,15.3H263.9z"/>
	<path d="M306.7,86.2v-2.4c1.9-0.1,3.2-0.5,3.8-1.3c0.7-0.8,1.1-1.8,1.1-3.2c0.1-1.4,0.1-2.9,0.1-4.6v-32c0-1,0-1.9,0.1-2.8
		c0-0.9,0.1-1.7,0.1-2.5c-0.9,0-1.8,0.1-2.7,0.1c-0.9,0-1.8,0.1-2.7,0.1v-3.3h16.7v2.4c-1.8,0-3.1,0.5-3.8,1.3
		c-0.7,0.8-1.1,1.9-1.2,3.2c-0.1,1.3-0.1,2.9-0.1,4.7v31.7c0,1.3,0,2.5,0,3.4c0,0.9-0.1,1.7-0.2,2.4l13.8-0.2c3.1,0,5.5-1,7.1-3
		c1.6-1.9,2.4-5.1,2.4-9.4h2.5l-0.4,15.3H306.7z"/>
	<path d="M366.1,36.9c-1.8,0-3.1,0.5-3.8,1.3c-0.7,0.8-1.1,1.9-1.2,3.2c-0.1,1.3-0.1,2.9-0.1,4.7v31.4c0,1.3,0,2.5,0,3.4
		c0,1-0.1,1.8-0.2,2.4c0.9,0,1.8-0.1,2.7-0.1c0.9,0,1.8-0.1,2.7-0.1v3.3h-16.7v-2.4c1.9-0.1,3.2-0.5,3.8-1.3
		c0.7-0.8,1.1-1.8,1.1-3.2c0.1-1.4,0.1-2.9,0.1-4.6v-32c0-1,0-1.9,0.1-2.8c0-0.9,0.1-1.7,0.1-2.5c-0.9,0-1.8,0.1-2.7,0.1
		c-0.9,0-1.8,0.1-2.7,0.1v-3.3h16.7V36.9z"/>
	<path d="M399.3,87.4c-4.7,0-8.7-0.8-12.1-2.4c-3.4-1.6-6.1-3.7-8.2-6.3c-2.1-2.6-3.6-5.6-4.6-8.8c-1-3.2-1.5-6.4-1.5-9.6
		c0-3.1,0.5-6.3,1.6-9.4s2.6-6.1,4.8-8.8s4.8-4.8,8.1-6.4c3.2-1.6,7-2.4,11.4-2.4c4.5,0,8.5,0.8,11.8,2.4c3.3,1.6,6,3.8,8.2,6.5
		c2.1,2.7,3.7,5.6,4.8,8.8c1.1,3.2,1.6,6.3,1.6,9.4c0,3.1-0.5,6.2-1.6,9.4c-1,3.2-2.6,6.1-4.8,8.8c-2.1,2.7-4.8,4.8-8,6.5
		C407.5,86.6,403.7,87.4,399.3,87.4z M399.4,84.4c3.1,0,5.7-0.7,8-2c2.3-1.3,4.2-3.1,5.7-5.3c1.5-2.2,2.6-4.6,3.4-7.3
		c0.8-2.7,1.1-5.4,1.1-8.1c0-3.1-0.4-6.1-1.3-9.1c-0.8-3-2.1-5.7-3.7-8.2c-1.6-2.5-3.6-4.5-6-6c-2.4-1.5-5.1-2.3-8.2-2.3
		c-3.1,0-5.7,0.7-8,2c-2.3,1.3-4.2,3.1-5.7,5.3c-1.5,2.2-2.6,4.6-3.4,7.3c-0.8,2.7-1.1,5.4-1.1,8.2c0,2.7,0.4,5.5,1.1,8.5
		c0.8,3,1.9,5.7,3.5,8.3c1.6,2.6,3.6,4.6,6,6.2C393.3,83.6,396.1,84.4,399.4,84.4z"/>
	<path d="M472.2,87.4l-29.5-39.7c-0.4-0.6-0.9-1.2-1.3-1.7c-0.4-0.6-0.9-1.1-1.3-1.7H440l0.2,31.7c0,1.2,0,2.5,0,3.7
		c0,1.2,0,2.4-0.1,3.6c0.9,0,1.8-0.1,2.7-0.1c0.9,0,1.8-0.1,2.7-0.1v3.3h-13.5v-2.4c1.5,0,2.6-0.3,3.3-1c0.7-0.7,1.1-1.5,1.3-2.4
		c0.2-0.9,0.3-1.7,0.3-2.5l0.1-35.6c0-0.8,0-1.7,0-2.5c0-0.8,0-1.7,0-2.4c-0.8,0-1.6,0.1-2.4,0.1c-0.8,0-1.7,0.1-2.5,0.1v-3.3h8.8
		l27.8,37.1c0.6,0.8,1.3,1.7,1.9,2.5c0.6,0.8,1.2,1.7,1.9,2.5h0.1l0.1-33.9c0-1,0-1.9,0.1-2.8c0-0.9,0.1-1.7,0.1-2.5
		c-0.9,0-1.8,0.1-2.7,0.1c-0.9,0-1.8,0.1-2.7,0.1v-3.3h13.6v2.4c-1.8,0-3.1,0.5-3.8,1.3c-0.7,0.8-1.1,1.9-1.1,3.2
		c0,1.3-0.1,2.9-0.1,4.7l-0.1,41.4H472.2z"/>
</g>
</svg>
